<svg xmlns="http://www.w3.org/2000/svg" width="300" height="300" viewBox="0 0 300 300">
<g stroke="#244D37" stroke-width="4" stroke-linecap="round" stroke-linejoin="round">
<path fill="#DDE6D4" stroke="none" d="M45 275 C45 263 255 263 255 275 C255 287 45 287 45 275Z"/>
<path fill="#658F58" d="M99 238 L98 263 Q82 266 87 275 L115 275 Q122 272 119 238Z M183 238 L183 270 Q183 278 194 278 L214 278 Q220 269 205 264 L205 234Z"/>
<path fill="#75A966" d="M61 66 Q52 48 77 42 L225 42 Q247 42 248 66 L248 209 Q248 241 219 245 L72 245 Q47 245 47 219 L47 85Z"/>
<path fill="#F6E5AD" d="M85 63 L76 27 Q75 21 81 20 L204 7 Q211 6 213 14 L224 64Z"/>
<path fill="none" stroke="#C8B16A" stroke-width="3" d="M96 54 L91 33 L199 21 L205 52"/>
<path fill="#95BE7B" d="M47 85 Q47 63 70 63 L222 63 Q246 63 246 87 L246 213 Q246 244 218 244 L75 244 Q47 244 47 217Z"/>
<path fill="none" stroke="#BDD5A5" stroke-width="5" d="M65 81 L224 81"/>
<path fill="#EDD183" d="M230 118 L250 118 Q261 118 261 130 L261 151 Q261 161 250 161 L229 161 Q217 161 217 149 L217 131 Q217 118 230 118Z"/>
<path fill="#C1A14F" stroke="none" d="M246 140 A5 5 0 1 0 236 140 A5 5 0 1 0 246 140Z"/>
<path fill="#244D37" stroke="none" d="M105 122 A6 9 0 1 0 93 122 A6 9 0 1 0 105 122Z M180 122 A6 9 0 1 0 168 122 A6 9 0 1 0 180 122Z"/>
<path fill="#EAA17C" stroke="none" d="M109 143 A12 8 0 1 0 85 143 A12 8 0 1 0 109 143Z M192 143 A12 8 0 1 0 168 143 A12 8 0 1 0 192 143Z"/>
<path fill="none" d="M127 138 Q138 152 150 138"/>
<path fill="#FFF6DC" d="M147 169 L218 159 Q225 158 223 165 L208 251 L199 246 L189 253 L180 248 L170 255 L160 250 L149 256 L139 251 L129 255Z"/>
<path fill="none" stroke="#DDCEAA" stroke-width="2" d="M161 185 L204 179 M157 199 L200 193 M154 213 L178 209"/>
<path fill="#659953" d="M239 182 Q245 210 222 217 L201 214 Q193 212 197 206 Q192 201 199 198 L216 197 Q219 185 226 181Z"/>
<path fill="#35634B" d="M77 148 L86 140 L157 213 L148 222Z"/>
<path fill="#E8C989" d="M148 222 L157 213 L164 232Z"/>
<path fill="#244D37" stroke="none" d="M158 223 L164 232 L155 228Z"/>
<path fill="#81AE69" d="M56 182 Q56 207 83 208 L110 192 Q119 187 116 181 Q114 176 107 179 Q107 170 100 174 L80 188 L70 188Z"/>
</g></svg>

